<svg id="Capa_1" data-name="Capa 1" xmlns="http://www.w3.org/2000/svg" viewBox="0 0 376 376"><defs><style>.cls-1{fill:#171a23;}.cls-2{fill:#8ec1ef;}</style></defs><rect class="cls-1" width="376" height="376"/><path class="cls-2" d="M330.65,104.86c-5.68-9.46-18-17-18-17L210.38,28.75a53.63,53.63,0,0,0-22.44-5.1c-15.47,0-22.25,5.06-22.25,5.06l-103.93,60s-13.32,7.73-17.25,15.57-4.92,23.06-4.92,23.06V247.87s0,14.41,4.95,22.18,16.89,15.43,16.89,15.43l104.19,60.16s11.7,6.71,22.31,6.71,23.18-7.14,23.18-7.14l102.05-58.92a74.87,74.87,0,0,0,15.69-16.14c7.41-10.32,7.56-23.88,7.56-23.88V128.48S336.32,114.33,330.65,104.86ZM263.84,254.53c-10.27,17.64-25.48,31.8-25.48,31.8a164.46,164.46,0,0,1-18.39-21l-.14,0c-8.45,23.06-31.63,44.61-31.63,44.61S165,288.38,156.57,265.32l-.13,0a165.37,165.37,0,0,1-18.39,21s-15.21-14.16-25.48-31.8c-10.9-4.68-17.4-10-18.58-14.62,7.26-5.81,41.14-30.29,94.21-30.29s86.95,24.48,94.21,30.29C281.23,244.56,274.73,249.85,263.84,254.53ZM188.2,192.94c-51.3,0-86.21,20.53-100.31,30.67,9.32-78,100.31-162.54,100.31-162.54s91,84.59,100.32,162.54C274.41,213.47,239.5,192.94,188.2,192.94Z"/></svg>