<?xml version="1.0" encoding="UTF-8" standalone="no"?>
<svg
   viewBox="750 130 281.23828 287.78001"
   width="35.90276"
   height="9.9234486"
   color="accent"
   version="1.1"
   id="svg20"
   sodipodi:docname="logo.svg"
   inkscape:version="1.1.2 (0a00cf5339, 2022-02-04)"
   xmlns:inkscape="http://www.inkscape.org/namespaces/inkscape"
   xmlns:sodipodi="http://sodipodi.sourceforge.net/DTD/sodipodi-0.dtd"
   xmlns="http://www.w3.org/2000/svg"
   xmlns:svg="http://www.w3.org/2000/svg">
  <defs
     id="defs24" />
  <sodipodi:namedview
     id="namedview22"
     pagecolor="#ffffff"
     bordercolor="#666666"
     borderopacity="1.0"
     inkscape:pageshadow="2"
     inkscape:pageopacity="0.0"
     inkscape:pagecheckerboard="0"
     showgrid="false"
     inkscape:zoom="32"
     inkscape:cx="17.34375"
     inkscape:cy="2"
     inkscape:window-width="1920"
     inkscape:window-height="1051"
     inkscape:window-x="0"
     inkscape:window-y="0"
     inkscape:window-maximized="1"
     inkscape:current-layer="svg20" />
  <g
     id="g850"
     transform="translate(237.12776,-1.0283837)">
    <path
       d="m 501,243.41 a 9.49,9.49 0 0 1 1.69,5.06 5.18,5.18 0 0 1 -5.43,5.25 c -2.44,0 -4.13,-1.32 -6.37,-4.69 -3.75,-5.62 -10.5,-10.49 -21.36,-10.49 -12.56,0 -20.05,6.37 -20.05,15.55 0,7.12 4.87,12.55 16.67,15.55 l 12,3.19 c 17.42,4.31 28.47,11.43 28.47,26 0,18.36 -17.61,28.29 -37.09,28.29 -15.55,0 -29,-6.93 -33.35,-16.86 -0.75,-1.5 -2.25,-3.56 -2.25,-6.37 0,-3.37 2.06,-5.81 5.25,-5.81 3,0 4.49,1.69 5.8,4.5 3.94,9.36 13.68,13.3 24.55,13.3 13.11,0 24.54,-5.25 24.54,-16.3 0,-8.81 -6.93,-12.93 -17.05,-15.55 l -15,-3.94 c -17.42,-4.49 -25.1,-14.05 -25.1,-25.85 0,-15.74 14,-26.61 32.79,-26.61 14.47,0.04 25.53,6.23 31.29,15.78 z"
       fill="#90cdf4"
       id="path2" />
    <path
       d="m 530.83,327.16 a 6.6,6.6 0 0 1 -6.37,-6.56 V 198.82 a 6.37,6.37 0 0 1 12.74,0 V 320.6 a 6.6,6.6 0 0 1 -6.37,6.56 z"
       fill="#90cdf4"
       id="path4" />
    <path
       d="m 650.36,275.26 c 0,4.87 -3,7.31 -8.24,7.31 h -73.07 c 1.5,23 19.3,33.72 36.35,33.72 a 36.77,36.77 0 0 0 23.6,-8.05 c 2.44,-1.88 3.94,-2.81 5.63,-2.81 a 4.81,4.81 0 0 1 5,5.06 c 0,1.68 -0.75,3.37 -3.56,6 -7.87,7.12 -19.29,10.68 -31.1,10.68 -23.6,0 -49.09,-15.92 -49.09,-49.65 0,-33.35 26.23,-49.84 47.59,-49.84 21.36,0 46.89,16.67 46.89,47.58 z m -81.31,-3 h 69 c -1.5,-22.85 -19.3,-33.35 -34.48,-33.35 -15.04,0 -32.84,10.5 -34.52,33.35 z"
       fill="#90cdf4"
       id="path6" />
    <path
       d="m 744,248.47 v -13.68 a 6.61,6.61 0 0 1 6.37,-6.56 6.52,6.52 0 0 1 6.56,6.56 v 86 a 6.47,6.47 0 1 1 -12.93,0 v -15.74 c -5.43,13.49 -19.11,22.49 -34.85,22.49 -21,0 -46.46,-16.3 -46.46,-50 0,-33.35 25.48,-49.84 46.46,-49.84 14.47,-0.03 28.52,7.09 34.85,20.77 z m 0.75,29 c 0,-27 -18.36,-38.6 -34.29,-38.6 -15.93,0 -35,12.37 -35,38.6 0,26.42 19.11,38.78 35,38.78 15.89,0 34.33,-12.32 34.33,-38.74 z"
       fill="#90cdf4"
       id="path8" />
    <path
       d="m 860.58,321.54 a 5.53,5.53 0 0 1 -5.62,5.62 5.9,5.9 0 0 1 -4.31,-1.69 l -42.53,-44.21 -15.93,16.11 v 23.23 a 6.37,6.37 0 1 1 -12.74,0 V 198.82 a 6.37,6.37 0 0 1 12.74,0 v 82.81 l 50,-51.52 a 6.42,6.42 0 0 1 4.3,-1.88 5.88,5.88 0 0 1 6,5.81 6.29,6.29 0 0 1 -1.69,4.12 l -34.66,35 42.53,44 a 6,6 0 0 1 1.91,4.38 z"
       fill="#90cdf4"
       id="path10" />
    <path
       d="m 973.55,277.89 c 0,33.53 -29,49.65 -50.4,49.65 -21.55,0 -50.4,-16.12 -50.4,-49.65 0,-33.35 28.85,-50.22 50.4,-50.22 21.36,0 50.4,16.87 50.4,50.22 z m -73.82,0 c 0,15.73 10.87,25.85 23.42,25.85 12.37,0 23.23,-10.12 23.23,-25.85 0,-16.31 -10.86,-26.42 -23.23,-26.42 -12.55,0 -23.42,10.11 -23.42,26.42 z"
       fill="#90cdf4"
       id="path12" />
    <path
       d="m 1086.15,277.51 c 0,34.1 -24.54,50 -45.15,50 -14.43,0 -23.23,-7.69 -25.86,-13.12 v 35.22 c 0,7.5 -6.55,13.68 -14,13.68 A 13.76,13.76 0 0 1 987.46,349.61 V 241.73 c 0,-7.31 6.56,-13.5 13.87,-13.5 a 13.73,13.73 0 0 1 13.68,13.5 v 0.74 c 3.18,-7.68 13.11,-14.8 26,-14.8 20.41,0 45.14,16.49 45.14,49.84 z m -27.35,0 c 0,-17.42 -11.43,-26.42 -22.86,-26.42 -9.37,0 -22.11,6.75 -22.11,26.42 0,19.86 12.74,26.6 22.11,26.6 11.43,0 22.86,-8.99 22.86,-26.6 z"
       fill="#90cdf4"
       id="path14" />
    <path
       d="m 1167.84,241 a 13.86,13.86 0 0 1 3.37,8.8 c 0,6.75 -4.49,10.31 -10.49,10.31 -3.93,0 -7.68,-1.5 -11.24,-5.44 -3.75,-3.93 -7.5,-5.43 -11.62,-5.43 -6,0 -9.74,3 -9.74,7.31 0,1.87 0.38,5.62 8.24,7.87 l 11.43,3.18 c 14.21,4.29 27.21,11.4 27.21,28.46 0,21.17 -19.49,31.1 -39,31.1 -17.24,0 -26.61,-7.31 -31.85,-12.74 -1.13,-1.12 -5.81,-6.56 -5.81,-12.93 0,-4.49 2.81,-10.3 10.49,-10.3 5.44,0 8.62,3.37 11.06,6.18 5.62,6.37 10.86,7.68 16.11,7.68 8.24,0 11.8,-3.75 11.8,-7.49 0,-1.88 -0.75,-6 -9.55,-8.62 l -9.74,-3 c -19.12,-5.43 -27.17,-15.74 -27.17,-29.23 0,-19.67 18,-29 35.6,-29 12.35,-0.04 24.72,4.65 30.9,13.29 z"
       fill="#90cdf4"
       id="path16" />
    <path
       d="m 388.64,202.66 c -5,-8.29 -15.75,-14.94 -15.75,-14.94 L 283.35,136 a 46.87,46.87 0 0 0 -19.65,-4.47 c -13.53,0 -19.47,4.43 -19.47,4.43 l -91,52.53 c 0,0 -11.67,6.77 -15.1,13.64 -3.43,6.87 -4.31,20.18 -4.31,20.18 v 105.54 c 0,0 0,12.61 4.33,19.41 4.33,6.8 14.85,13.51 14.85,13.51 l 91.21,52.66 c 0,0 10.24,5.88 19.53,5.88 9.29,0 20.26,-6.25 20.26,-6.25 l 89.34,-51.58 a 65.47,65.47 0 0 0 13.74,-14.13 c 6.48,-9 6.61,-20.9 6.61,-20.9 V 223.33 c 0,0 -0.09,-12.39 -5.05,-20.67 z m -58.49,131 c -9,15.45 -22.31,27.85 -22.31,27.85 A 145.1,145.1 0 0 1 291.75,343.1 h -0.12 c -7.4,20.19 -27.69,39.06 -27.69,39.06 0,0 -20.29,-18.87 -27.69,-39.06 h -0.12 A 144.69,144.69 0 0 1 220,361.52 c 0,0 -13.31,-12.4 -22.3,-27.85 -9.54,-4.09 -15.23,-8.72 -16.27,-12.8 6.36,-5.08 36,-26.5 82.48,-26.5 46.48,0 76.11,21.42 82.47,26.5 -1,4.13 -6.69,8.71 -16.23,12.8 z m -66.21,-53.91 c -44.91,0 -75.47,18 -87.82,26.85 8.16,-68.24 87.82,-142.29 87.82,-142.29 0,0 79.65,74.05 87.82,142.29 -12.35,-8.87 -42.91,-26.84 -87.82,-26.84 z"
       fill="#90cdf4"
       id="path18" />
  </g>
</svg>
